<svg width="3104" height="3104" viewBox="0 0 3104 3104" fill="none" xmlns="http://www.w3.org/2000/svg">
<g clip-path="url(#clip0)">
<path d="M598.769 1553.6C598.008 1449.58 628.158 1347.68 685.395 1260.82C742.632 1173.96 824.376 1106.05 920.261 1065.72C1016.15 1025.38 1121.85 1014.43 1223.97 1034.26C1326.08 1054.09 1420.01 1103.79 1493.83 1177.08C1567.66 1250.36 1618.05 1343.92 1638.63 1445.89C1659.21 1547.86 1649.03 1653.64 1609.4 1749.82C1569.77 1846 1502.47 1928.24 1416.03 1986.11C1329.6 2043.98 1227.92 2074.88 1123.89 2074.88C985.337 2074.72 852.445 2019.87 754.111 1922.25C655.777 1824.64 599.951 1692.15 598.769 1553.6ZM1522.86 1553.6C1522.86 1474.69 1499.46 1397.56 1455.62 1331.95C1411.78 1266.34 1349.47 1215.2 1276.57 1185C1203.67 1154.81 1123.45 1146.91 1046.06 1162.3C968.668 1177.69 897.578 1215.69 841.782 1271.49C785.985 1327.29 747.988 1398.37 732.593 1475.77C717.199 1553.16 725.1 1633.38 755.297 1706.28C785.494 1779.18 836.63 1841.49 902.24 1885.33C967.85 1929.17 1044.99 1952.57 1123.89 1952.57C1176.53 1952.74 1228.67 1942.48 1277.31 1922.37C1325.96 1902.27 1370.13 1872.73 1407.29 1835.45C1444.45 1798.18 1473.85 1753.9 1493.8 1705.2C1513.74 1656.49 1523.84 1604.31 1523.5 1551.68L1522.86 1553.6Z" fill="white"/>
<path d="M2323.36 1930.15H2447.59C2462.24 1931.68 2475.81 1938.58 2485.67 1949.52C2495.53 1960.46 2500.98 1974.66 2500.98 1989.39C2500.98 2004.12 2495.53 2018.32 2485.67 2029.26C2475.81 2040.2 2462.24 2047.1 2447.59 2048.63H2255.48C2240.41 2048.46 2226.01 2042.4 2215.36 2031.75C2204.7 2021.1 2198.65 2006.7 2198.48 1991.63V1840.5C2158.08 1913.03 2098.73 1973.22 2026.76 2014.62C1954.79 2056.02 1872.92 2077.07 1789.91 2075.52C1720.95 2076.75 1652.46 2064.03 1588.54 2038.15C1524.61 2012.26 1466.57 1973.74 1417.9 1924.88C1369.22 1876.03 1330.91 1817.85 1305.26 1753.83C1279.61 1689.81 1267.15 1621.27 1268.62 1552.32C1267.15 1483.37 1279.61 1414.83 1305.26 1350.81C1330.91 1286.79 1369.22 1228.61 1417.9 1179.76C1466.57 1130.9 1524.61 1092.38 1588.54 1066.49C1652.46 1040.61 1720.95 1027.89 1789.91 1029.12C1873.17 1027.47 1955.28 1048.69 2027.32 1090.47C2099.36 1132.25 2158.56 1192.98 2198.48 1266.06V1088.67C2198.48 1071.69 2205.23 1055.4 2217.24 1043.39C2229.25 1031.38 2245.54 1024.63 2262.52 1024.63C2279.5 1024.63 2295.79 1031.38 2307.8 1043.39C2319.81 1055.4 2326.56 1071.69 2326.56 1088.67L2323.36 1930.15ZM2199.12 1545.92C2197.77 1441.05 2155.12 1340.95 2080.43 1267.34C2005.74 1193.72 1905.03 1152.54 1800.15 1152.71C1720.8 1152.46 1643.17 1175.8 1577.11 1219.77C1511.05 1263.74 1459.56 1326.35 1429.16 1399.65C1398.77 1472.95 1390.85 1553.63 1406.41 1631.44C1421.97 1709.25 1460.31 1780.68 1516.55 1836.66C1572.8 1892.63 1644.41 1930.63 1722.3 1945.81C1800.18 1960.99 1880.82 1952.68 1953.98 1921.94C2027.13 1891.19 2089.49 1839.39 2133.14 1773.12C2176.79 1706.85 2199.75 1629.11 2199.12 1549.76V1545.92Z" fill="white"/>
<path d="M1551.68 3104C1244.84 3103.88 944.929 3012.78 689.855 2842.23C434.781 2671.68 235.997 2429.34 118.634 2145.83C1.2701 1862.32 -29.4044 1550.38 30.4879 1249.45C90.3803 948.512 238.15 672.087 455.118 455.12C672.086 238.152 948.51 90.3819 1249.45 30.4896C1550.38 -29.4027 1862.32 1.27176 2145.83 118.635C2429.33 235.999 2671.68 434.782 2842.23 689.856C3012.78 944.931 3103.87 1244.84 3104 1551.68C3103.66 1963.28 2940.01 2357.92 2648.96 2648.96C2357.92 2940.01 1963.28 3103.66 1551.68 3104ZM1551.68 142.171C1273.03 142.171 1000.64 224.8 768.954 379.608C537.266 534.417 356.688 754.453 250.053 1011.89C143.419 1269.33 115.519 1552.6 169.88 1825.9C224.242 2099.19 358.424 2350.23 555.458 2547.26C752.492 2744.3 1003.53 2878.48 1276.82 2932.84C1550.12 2987.2 1833.4 2959.3 2090.83 2852.67C2348.27 2746.04 2568.31 2565.46 2723.11 2333.77C2877.92 2102.08 2960.55 1829.69 2960.55 1551.04C2960.55 1366.03 2924.11 1182.82 2853.31 1011.89C2782.51 840.958 2678.73 685.645 2547.9 554.819C2417.08 423.994 2261.76 320.217 2090.83 249.415C1919.9 178.612 1736.7 142.171 1551.68 142.171Z" fill="white"/>
</g>
<defs>
<clipPath id="clip0">
<rect width="3104" height="3104" fill="white"/>
</clipPath>
</defs>
</svg>
